<svg xmlns="http://www.w3.org/2000/svg" width="35" height="36" viewBox="0 0 35 36">
    <g fill="none" fill-rule="evenodd">
        <rect width="35" height="35.027" y=".372" fill="#00B1EC" rx="6"/>
        <path fill="#FFF" fill-rule="nonzero" d="M26.6 12.529a6.28 6.28 0 0 1-1.979.613c.712-.481 1.257-1.245 1.515-2.152a6.488 6.488 0 0 1-2.19.945c-.629-.758-1.523-1.23-2.515-1.23-1.904 0-3.447 1.743-3.447 3.892 0 .304.03.602.09.887-2.864-.163-5.404-1.713-7.103-4.067a4.252 4.252 0 0 0-.467 1.956c0 1.35.61 2.542 1.533 3.24a3.153 3.153 0 0 1-1.56-.49v.05c0 1.884 1.187 3.458 2.763 3.816a3.117 3.117 0 0 1-.908.136c-.222 0-.438-.025-.649-.072.44 1.547 1.712 2.672 3.219 2.703-1.179 1.043-2.665 1.664-4.28 1.664-.278 0-.552-.02-.822-.054 1.525 1.106 3.336 1.751 5.283 1.751 6.34 0 9.805-5.93 9.805-11.073l-.012-.504a7.437 7.437 0 0 0 1.724-2.011z"/>
    </g>
</svg>
